PathFileType	4	(X/Y/Z)	RBDS015static.trc
DataRate	CameraRate	NumFrames	NumMarkers	Units	OrigDataRate	OrigDataStartFrame	OrigNumFrames
150.000000	150.000000	4	48	mm	150.000000	18	150
Frame#	Time	L.Ankle			L.Ankle.Medial			L.ASIS			L.GTR			L.Heel.Bottom			L.Heel.Lateral			L.Heel.Top			L.HF			L.Iliac.Crest			L.Knee			L.Knee.Medial			L.MT1			L.MT2			L.MT5			L.PSIS			L.Shank.Bottom.Lateral			L.Shank.Bottom.Medial			L.Shank.Top.Lateral			L.Shank.Top.Medial			L.Thigh.Bottom.Lateral			L.Thigh.Bottom.Medial			L.Thigh.Top.Lateral			L.Thigh.Top.Medial			L.TT			R.Ankle			R.Ankle.Medial			R.ASIS			R.GTR			R.Heel.Bottom			R.Heel.Lateral			R.Heel.Top			R.HF			R.Iliac.Crest			R.Knee			R.Knee.Medial			R.MT1			R.MT2			R.MT5			R.PSIS			R.Shank.Bottom.Lateral			R.Shank.Bottom.Medial			R.Shank.Top.Lateral			R.Shank.Top.Medial			R.Thigh.Bottom.Lateral			R.Thigh.Bottom.Medial			R.Thigh.Top.Lateral			R.Thigh.Top.Medial			R.TT			
		X1	Y1	Z1	X2	Y2	Z2	X3	Y3	Z3	X4	Y4	Z4	X5	Y5	Z5	X6	Y6	Z6	X7	Y7	Z7	X8	Y8	Z8	X9	Y9	Z9	X10	Y10	Z10	X11	Y11	Z11	X12	Y12	Z12	X13	Y13	Z13	X14	Y14	Z14	X15	Y15	Z15	X16	Y16	Z16	X17	Y17	Z17	X18	Y18	Z18	X19	Y19	Z19	X20	Y20	Z20	X21	Y21	Z21	X22	Y22	Z22	X23	Y23	Z23	X24	Y24	Z24	X25	Y25	Z25	X26	Y26	Z26	X27	Y27	Z27	X28	Y28	Z28	X29	Y29	Z29	X30	Y30	Z30	X31	Y31	Z31	X32	Y32	Z32	X33	Y33	Z33	X34	Y34	Z34	X35	Y35	Z35	X36	Y36	Z36	X37	Y37	Z37	X38	Y38	Z38	X39	Y39	Z39	X40	Y40	Z40	X41	Y41	Z41	X42	Y42	Z42	X43	Y43	Z43	X44	Y44	Z44	X45	Y45	Z45	X46	Y46	Z46	X47	Y47	Z47	X48	Y48	Z48	

19	0.12	699.7392578125	107.5832214355469	1032.7333984375	714.6572875976563	118.2240524291992	1120.92333984375	812.4015502929688	1081.664184570313	1094.934814453125	726.1160888671875	988.7540893554688	1048.935302734375	636.9467163085938	39.86782836914063	1081.433349609375	661.1737670898438	58.24342346191406	1040.410400390625	642.78125	82.29986572265625	1082.322265625	695.5416870117188	511.4577026367188	1055.209838867188	732.08056640625	1158.524291992188	1061.917236328125	695.8383178710938	571.2189331054688	1061.33642578125	700.9510498046875	556.07568359375	1190.163940429688	843.8499145507813	61.17006301879883	1125.682861328125	853.0828857421875	70.80693054199219	1079.56005859375	817.386474609375	48.60812759399414	1013.167236328125	638.0274047851563	1121.46484375	1178.272216796875	692.399658203125	210.5887145996094	1033.4501953125	648.7203979492188	204.8636474609375	1060.36962890625	682.8607177734375	291.1524963378906	1028.296875	638.0177612304688	288.7103271484375	1057.002319335938	713.8052978515625	704.497314453125	1040.867797851563	653.42919921875	703.482421875	1072.74755859375	709.064208984375	814.8814697265625	1035.517822265625	647.442626953125	813.539306640625	1074.396728515625	753.142333984375	476.7017517089844	1102.81298828125	692.2855834960938	114.891487121582	1413.04345703125	716.68310546875	117.7109985351563	1326.79833984375	832.0975341796875	1075.295043945313	1323.078002929688	753.0524291992188	989.5452270507813	1381.271362304688	632.9934692382813	41.04238891601563	1370.232177734375	660.6670532226563	61.701171875	1411.36865234375	641.4474487304688	87.68487548828125	1370.383666992188	715.2294311523438	511.3075256347656	1376.16796875	751.128662109375	1158.0576171875	1368.438842773438	716.8316650390625	576.7257080078125	1368.82080078125	732.213134765625	550.7919311523438	1242.638305664063	843.0743408203125	59.66770172119141	1326.583374023438	851.17236328125	72.94844818115234	1375.512939453125	808.2623291015625	50.0872802734375	1441.300048828125	644.4085083007813	1121.098022460938	1269.88818359375	701.3640747070313	208.8298797607422	1408.979858398438	653.29150390625	205.8159637451172	1381.215454101563	694.0103759765625	290.0634155273438	1410.293212890625	648.2394409179688	286.2060241699219	1382.17919921875	729.2838134765625	725.5394287109375	1387.896850585938	666.3961791992188	721.8024291992188	1349.328735351563	716.781494140625	834.8139038085938	1390.787353515625	659.0189819335938	831.4491577148438	1351.599243164063	776.4744262695313	486.6081237792969	1330.647094726563	
20	0.1266666666666667	699.7362060546875	107.5863952636719	1032.74072265625	714.6616821289063	118.2253799438477	1120.912963867188	812.457275390625	1081.657470703125	1094.941650390625	726.1558227539063	988.7516479492188	1048.939208984375	636.953857421875	39.86595153808594	1081.43896484375	661.1680297851563	58.25274658203125	1040.413330078125	642.7747192382813	82.30129241943359	1082.328125	695.55029296875	511.478759765625	1055.219116210938	732.1165771484375	1158.5205078125	1061.9130859375	695.8380126953125	571.2236938476563	1061.333129882813	700.9718017578125	556.0721435546875	1190.172485351563	843.853271484375	61.16781616210938	1125.6826171875	853.0913696289063	70.81576538085938	1079.568481445313	817.3863525390625	48.60516738891602	1013.16162109375	638.0833740234375	1121.462524414063	1178.296020507813	692.4006958007813	210.5948791503906	1033.445434570313	648.7238159179688	204.8638763427734	1060.3681640625	682.8638916015625	291.1670532226563	1028.29248046875	638.0232543945313	288.7101745605469	1057.01171875	713.8211059570313	704.495361328125	1040.884887695313	653.45703125	703.485595703125	1072.752319335938	709.0945434570313	814.8831787109375	1035.5126953125	647.4710083007813	813.5399169921875	1074.411376953125	753.1464233398438	476.7013244628906	1102.802734375	692.2847290039063	114.8919067382813	1413.038208007813	716.686279296875	117.7137298583984	1326.7841796875	832.1625366210938	1075.291259765625	1323.070556640625	753.123046875	989.5414428710938	1381.278198242188	632.98876953125	41.04195404052734	1370.234619140625	660.655517578125	61.70937347412109	1411.360717773438	641.4570922851563	87.67972564697266	1370.380249023438	715.2704467773438	511.3134765625	1376.167846679688	751.2100219726563	1158.05078125	1368.444580078125	716.8699951171875	576.7206420898438	1368.816284179688	732.2261352539063	550.7949829101563	1242.642211914063	843.0654296875	59.67221069335938	1326.57861328125	851.1648559570313	72.94678497314453	1375.515380859375	808.2572631835938	50.08963394165039	1441.302734375	644.4717407226563	1121.1005859375	1269.894409179688	701.38232421875	208.8413848876953	1408.980590820313	653.3019409179688	205.8163146972656	1381.216430664063	694.0308227539063	290.0690307617188	1410.2958984375	648.2581787109375	286.2167663574219	1382.182006835938	729.3363647460938	725.5316162109375	1387.897216796875	666.4442749023438	721.7993774414063	1349.336181640625	716.838134765625	834.8080444335938	1390.7880859375	659.0768432617188	831.4488525390625	1351.5927734375	776.502197265625	486.6054382324219	1330.637573242188	
21	0.1333333333333333	699.7449951171875	107.588134765625	1032.736328125	714.6649169921875	118.231330871582	1120.912475585938	812.4986572265625	1081.651733398438	1094.9462890625	726.1953735351563	988.7522583007813	1048.937622070313	636.9473266601563	39.88187026977539	1081.420654296875	661.165283203125	58.25419998168945	1040.406127929688	642.7744750976563	82.30711364746094	1082.31689453125	695.5632934570313	511.4663696289063	1055.235473632813	732.1466064453125	1158.517456054688	1061.91552734375	695.8671875	571.2296752929688	1061.341552734375	700.9814453125	556.0906982421875	1190.176513671875	843.8426513671875	61.16455459594727	1125.68603515625	853.0914306640625	70.81443786621094	1079.564453125	817.3884887695313	48.59967422485352	1013.160766601563	638.1339721679688	1121.463256835938	1178.30517578125	692.4092407226563	210.6049041748047	1033.451293945313	648.7232666015625	204.8752288818359	1060.3662109375	682.8728637695313	291.1682739257813	1028.30029296875	638.0361938476563	288.7151794433594	1057.00634765625	713.8475952148438	704.4993896484375	1040.873657226563	653.4888916015625	703.4860229492188	1072.7578125	709.1293334960938	814.8890380859375	1035.517456054688	647.5064086914063	813.5438842773438	1074.41259765625	753.1732177734375	476.6967468261719	1102.802856445313	692.2904052734375	114.8935089111328	1413.041381835938	716.6935424804688	117.7146072387695	1326.788330078125	832.2218017578125	1075.281127929688	1323.072021484375	753.195068359375	989.5487670898438	1381.275390625	632.997314453125	41.03804397583008	1370.23583984375	660.6563110351563	61.71381378173828	1411.367919921875	641.4540405273438	87.69704437255859	1370.38134765625	715.3089599609375	511.3109130859375	1376.169555664063	751.2955932617188	1158.044921875	1368.446166992188	716.8890380859375	576.8279418945313	1369.111694335938	732.2498779296875	550.799072265625	1242.635131835938	843.0736083984375	59.66998672485352	1326.580200195313	851.1712036132813	72.93947601318359	1375.511108398438	808.2639770507813	50.08952331542969	1441.294067382813	644.5294189453125	1121.110229492188	1269.912841796875	701.3944702148438	208.8327331542969	1408.980102539063	653.3141479492188	205.8269500732422	1381.223266601563	694.052734375	290.0638427734375	1410.303955078125	648.2847900390625	286.2151184082031	1382.1904296875	729.3934936523438	725.5316772460938	1387.90087890625	666.4959716796875	721.8003540039063	1349.337768554688	716.8938598632813	834.8076782226563	1390.799072265625	659.1280517578125	831.4531860351563	1351.60693359375	776.5307006835938	486.6005554199219	1330.623901367188	
22	0.14	699.733642578125	107.5845108032227	1032.72900390625	714.668701171875	118.228385925293	1120.912353515625	812.5459594726563	1081.655395507813	1094.931884765625	726.2240600585938	988.7694702148438	1048.943603515625	636.9463500976563	39.87789154052734	1081.441284179688	661.166748046875	58.25936126708984	1040.41455078125	642.780517578125	82.31185150146484	1082.321044921875	695.5742797851563	511.4798278808594	1055.227416992188	732.1917114257813	1158.522338867188	1061.906982421875	695.8849487304688	571.2311401367188	1061.342651367188	701.0143432617188	556.0928955078125	1190.167602539063	843.848876953125	61.17100143432617	1125.679443359375	853.0963745117188	70.80306243896484	1079.561401367188	817.3858642578125	48.60540008544922	1013.163391113281	638.1953125	1121.46728515625	1178.318237304688	692.4127197265625	210.6038513183594	1033.456665039063	648.735595703125	204.8856506347656	1060.370361328125	682.876708984375	291.1695556640625	1028.295166015625	638.039794921875	288.7303466796875	1057.016479492188	713.8677978515625	704.5033569335938	1040.883666992188	653.5201416015625	703.4990844726563	1072.767211914063	709.162109375	814.8927001953125	1035.524169921875	647.5493774414063	813.5518188476563	1074.4140625	753.1917724609375	476.7035522460938	1102.79931640625	692.2948608398438	114.8883514404297	1413.042846679688	716.7028198242188	117.7149429321289	1326.783447265625	832.2883911132813	1075.2734375	1323.066650390625	753.2534790039063	989.53759765625	1381.286865234375	633.000244140625	41.04227828979492	1370.23828125	660.6651000976563	61.70532989501953	1411.369140625	641.4495849609375	87.69321441650391	1370.380615234375	715.348388671875	511.3153686523438	1376.171997070313	751.3748168945313	1158.039184570313	1368.459228515625	716.9400024414063	576.7276000976563	1368.834716796875	732.2711181640625	550.8048706054688	1242.629760742188	843.0758056640625	59.67112350463867	1326.572875976563	851.1768188476563	72.93869781494141	1375.508544921875	808.2605590820313	50.09561157226563	1441.304931640625	644.5826416015625	1121.102905273438	1269.924560546875	701.4147338867188	208.8345947265625	1408.981201171875	653.3331298828125	205.8296966552734	1381.2314453125	694.0706176757813	290.0650634765625	1410.30517578125	648.303955078125	286.2263488769531	1382.200073242188	729.4405517578125	725.5208740234375	1387.9013671875	666.5436401367188	721.8032836914063	1349.350952148438	716.9437866210938	834.8114624023438	1390.812866210938	659.1798706054688	831.46240234375	1351.629638671875	776.5567626953125	486.5893859863281	1330.624145507813	
